<svg width="70" height="69" viewBox="0 0 70 69" fill="none" xmlns="http://www.w3.org/2000/svg">
<path d="M14.0205 2.32495H56.6455C63.108 2.32495 68.333 7.54995 68.333 14.0125V54.9875C68.333 61.45 63.108 66.6749 56.6455 66.6749H14.0205C7.55801 66.6749 2.33301 61.45 2.33301 54.9875V14.0125C2.33301 7.54995 7.55801 2.32495 14.0205 2.32495Z" fill="#330000"/>
<path d="M34.233 40.825H24.003L21.913 47.2875C21.858 47.535 21.638 47.7 21.3905 47.6725H16.2205C15.918 47.6725 15.8355 47.5075 15.918 47.1775L24.773 21.685C24.8555 21.41 24.938 21.1075 25.048 20.7775C25.158 20.2 25.213 19.5949 25.213 18.99C25.1855 18.8524 25.2955 18.715 25.433 18.6875H32.5555C32.7755 18.6875 32.8855 18.77 32.913 18.9075L42.9505 47.2325C43.033 47.535 42.9505 47.6725 42.6755 47.6725H36.928C36.7355 47.7 36.543 47.5625 36.488 47.37L34.233 40.825ZM25.598 35.2425H32.583C32.418 34.665 32.198 33.9775 31.9505 33.2625C31.703 32.52 31.4555 31.7225 31.208 30.8975C30.933 30.045 30.6855 29.22 30.4105 28.3675C30.1355 27.5149 29.888 26.7175 29.668 25.92C29.448 25.15 29.2555 24.435 29.063 23.775H29.008C28.7605 24.9575 28.458 26.14 28.073 27.3225C27.6605 28.6425 27.248 30.0175 26.808 31.3925C26.423 32.795 26.0105 34.0875 25.598 35.2425ZM49.083 23.5C48.1755 23.5275 47.2955 23.17 46.6355 22.5375C46.003 21.85 45.673 20.9425 45.7005 20.0075C45.673 19.0725 46.0305 18.1925 46.6905 17.56C47.3505 16.9275 48.2305 16.5975 49.138 16.5975C50.2105 16.5975 51.0355 16.9275 51.6405 17.56C52.2455 18.22 52.5755 19.1 52.548 20.0075C52.5755 20.9425 52.2455 21.85 51.5855 22.5375C50.953 23.1975 50.018 23.555 49.083 23.5ZM46.003 47.37V26.195C46.003 25.92 46.113 25.81 46.3605 25.81H51.8055C52.053 25.81 52.163 25.9475 52.163 26.195V47.37C52.163 47.6725 52.053 47.81 51.8055 47.81H46.4155C46.1405 47.81 46.003 47.645 46.003 47.37Z" fill="#FF9A00"/>
</svg>
