<svg width="70" height="69" viewBox="0 0 70 69" fill="none" xmlns="http://www.w3.org/2000/svg">
<path d="M24.25 66.75C30.184 66.75 35 61.934 35 56V45.25H24.25C18.316 45.25 13.5 50.066 13.5 56C13.5 61.934 18.316 66.75 24.25 66.75Z" fill="#0ACF83"/>
<path d="M13.5 34.5C13.5 28.566 18.316 23.75 24.25 23.75H35V45.25H24.25C18.316 45.25 13.5 40.434 13.5 34.5Z" fill="#A259FF"/>
<path d="M13.5 13C13.5 7.066 18.316 2.25 24.25 2.25H35V23.75H24.25C18.316 23.75 13.5 18.934 13.5 13Z" fill="#F24E1E"/>
<path d="M35 2.25H45.75C51.684 2.25 56.5 7.066 56.5 13C56.5 18.934 51.684 23.75 45.75 23.75H35V2.25Z" fill="#FF7262"/>
<path d="M56.5 34.5C56.5 40.434 51.684 45.25 45.75 45.25C39.816 45.25 35 40.434 35 34.5C35 28.566 39.816 23.75 45.75 23.75C51.684 23.75 56.5 28.566 56.5 34.5Z" fill="#1ABCFE"/>
</svg>
