<svg width="70" height="69" viewBox="0 0 70 69" fill="none" xmlns="http://www.w3.org/2000/svg">
<path d="M13.3545 2.32495H55.9795C62.442 2.32495 67.667 7.54995 67.667 14.0125V54.9875C67.667 61.45 62.442 66.6749 55.9795 66.6749H13.3545C6.89199 66.6749 1.66699 61.45 1.66699 54.9875V14.0125C1.66699 7.54995 6.89199 2.32495 13.3545 2.32495Z" fill="#001E36"/>
<path d="M16.517 47.4525V19.155C16.517 18.9625 16.5995 18.8525 16.792 18.8525C17.2595 18.8525 17.6995 18.8525 18.332 18.825C18.992 18.7975 19.6795 18.7975 20.422 18.77C21.1645 18.7425 21.962 18.7425 22.8145 18.715C23.667 18.6875 24.492 18.6875 25.317 18.6875C27.572 18.6875 29.442 18.9625 30.982 19.54C32.357 20.0075 33.622 20.7775 34.667 21.795C35.547 22.675 36.2345 23.7474 36.6745 24.93C37.087 26.085 37.307 27.2675 37.307 28.505C37.307 30.87 36.757 32.8225 35.657 34.3625C34.557 35.9025 33.017 37.0574 31.2295 37.7175C29.3595 38.405 27.297 38.6525 25.042 38.6525C24.382 38.6525 23.942 38.6525 23.667 38.625C23.392 38.5975 23.007 38.5975 22.4845 38.5975V47.425C22.512 47.6175 22.3745 47.7825 22.182 47.81C22.1545 47.81 22.127 47.81 22.072 47.81H16.847C16.627 47.81 16.517 47.7 16.517 47.4525ZM22.512 24.16V33.4C22.897 33.4275 23.2545 33.455 23.5845 33.455H25.042C26.1145 33.455 27.187 33.29 28.2045 32.96C29.0845 32.7125 29.8545 32.19 30.4595 31.5025C31.037 30.815 31.312 29.88 31.312 28.67C31.3395 27.8175 31.1195 26.965 30.6795 26.2225C30.212 25.5075 29.552 24.9575 28.7545 24.655C27.737 24.2425 26.637 24.0775 25.5095 24.1049C24.7945 24.1049 24.162 24.105 23.6395 24.1325C23.0895 24.105 22.7045 24.1325 22.512 24.16Z" fill="#31A8FF"/>
<path d="M54.467 31.7225C53.642 31.2825 52.762 30.98 51.827 30.7875C50.8095 30.5675 49.792 30.43 48.747 30.43C48.197 30.4025 47.6195 30.485 47.097 30.6225C46.7395 30.705 46.437 30.8975 46.2445 31.1725C46.107 31.3925 46.0245 31.6675 46.0245 31.915C46.0245 32.1625 46.1345 32.41 46.2995 32.63C46.547 32.9325 46.877 33.18 47.2345 33.3725C47.867 33.7025 48.527 34.005 49.187 34.28C50.672 34.775 52.102 35.4625 53.422 36.2875C54.3295 36.865 55.072 37.635 55.5945 38.57C56.0345 39.45 56.2545 40.4125 56.227 41.4025C56.2545 42.695 55.8695 43.9874 55.1545 45.06C54.3845 46.16 53.312 47.0125 52.0745 47.5075C50.727 48.085 49.077 48.3875 47.097 48.3875C45.832 48.3875 44.5945 48.2775 43.357 48.03C42.3945 47.865 41.432 47.5625 40.552 47.15C40.3595 47.04 40.222 46.8475 40.2495 46.6275V41.8425C40.2495 41.76 40.277 41.65 40.3595 41.595C40.442 41.54 40.5245 41.5675 40.607 41.6225C41.6795 42.255 42.807 42.695 44.017 42.97C45.062 43.245 46.162 43.3825 47.262 43.3825C48.307 43.3825 49.0495 43.2449 49.5445 42.9975C49.9845 42.805 50.287 42.3375 50.287 41.8425C50.287 41.4575 50.067 41.1 49.627 40.7425C49.187 40.385 48.2795 39.9725 46.932 39.45C45.5295 38.955 44.237 38.295 43.027 37.47C42.1745 36.865 41.4595 36.0675 40.937 35.1325C40.497 34.2525 40.277 33.29 40.3045 32.3275C40.3045 31.145 40.6345 30.0175 41.2395 29C41.927 27.9 42.9445 27.02 44.127 26.47C45.4195 25.81 47.042 25.5075 48.9945 25.5075C50.122 25.5075 51.277 25.59 52.4045 25.755C53.2295 25.865 54.027 26.085 54.7695 26.3875C54.8795 26.415 54.9895 26.525 55.0445 26.635C55.072 26.745 55.0995 26.855 55.0995 26.965V31.4475C55.0995 31.5575 55.0445 31.6675 54.962 31.7225C54.7145 31.7775 54.577 31.7775 54.467 31.7225Z" fill="#31A8FF"/>
</svg>
